<svg width="64" height="64" viewBox="0 0 64 64" fill="none" xmlns="http://www.w3.org/2000/svg">
<path d="M23 59C34.0457 59 43 50.0457 43 39C43 27.9543 34.0457 19 23 19C11.9543 19 3 27.9543 3 39C3 50.0457 11.9543 59 23 59Z" fill="#F2A7B1"/>
<path d="M25 57C21.1647 57.0039 17.4093 55.9037 14.1823 53.831C10.9552 51.7583 8.39298 48.8006 6.80143 45.3111C5.20988 41.8216 4.65631 37.9478 5.20682 34.1521C5.75733 30.3565 7.38866 26.7996 9.906 23.906C7.82941 25.7024 6.1453 27.9076 4.95876 30.3838C3.77221 32.86 3.10868 35.5541 3.00957 38.2981C2.91046 41.0421 3.37789 43.7771 4.3827 46.3325C5.38751 48.8878 6.90814 51.2087 8.84972 53.1503C10.7913 55.0919 13.1122 56.6125 15.6675 57.6173C18.2229 58.6221 20.9579 59.0895 23.7019 58.9904C26.4459 58.8913 29.14 58.2278 31.6162 57.0412C34.0924 55.8547 36.2976 54.1706 38.094 52.094C34.4665 55.2594 29.8144 57.0024 25 57V57Z" fill="#E8859B"/>
<path d="M43 55H3C3.27593 57.2088 4.34914 59.2408 6.01789 60.714C7.68664 62.1872 9.83602 63.0001 12.062 63H33.938C36.164 63.0001 38.3134 62.1872 39.9821 60.714C41.6509 59.2408 42.7241 57.2088 43 55V55Z" fill="#F2A7B1"/>
<path d="M36.938 60H15.062C13.3761 59.9992 11.7234 59.5316 10.287 58.6491C8.85061 57.7665 7.68661 56.5035 6.924 55H3C3.27593 57.2088 4.34914 59.2408 6.01789 60.714C7.68664 62.1872 9.83602 63.0001 12.062 63H33.938C35.4962 62.9993 37.0283 62.5997 38.3883 61.8391C39.7482 61.0785 40.8908 59.9823 41.707 58.655C40.2723 59.5358 38.6215 60.0014 36.938 60V60Z" fill="#E8859B"/>
<path d="M23 55C31.8366 55 39 47.8366 39 39C39 30.1634 31.8366 23 23 23C14.1634 23 7 30.1634 7 39C7 47.8366 14.1634 55 23 55Z" fill="#98DEEA"/>
<path d="M21.356 25C24.2746 24.9983 27.138 25.7953 29.6359 27.3046C32.1339 28.814 34.1712 30.9782 35.527 33.5627C36.8829 36.1472 37.5056 39.0534 37.3278 41.9666C37.1499 44.8797 36.1782 47.6886 34.518 50.089C36.0518 48.4978 37.2392 46.606 38.0052 44.5329C38.7712 42.4598 39.0992 40.2505 38.9685 38.0443C38.8378 35.8381 38.2512 33.6829 37.2457 31.7148C36.2403 29.7467 34.8378 28.0083 33.1268 26.6094C31.4157 25.2105 29.4333 24.1815 27.3047 23.5872C25.176 22.9929 22.9472 22.8463 20.759 23.1566C18.5708 23.467 16.4707 24.2275 14.5912 25.3902C12.7117 26.5529 11.0936 28.0925 9.839 29.912C11.3277 28.3583 13.1157 27.122 15.095 26.2778C17.0744 25.4337 19.2041 24.999 21.356 25V25Z" fill="#82D0D8"/>
<path d="M58 35H52V23.141C52 22.4825 52.1626 21.8343 52.4733 21.2537C52.7839 20.6732 53.2331 20.1783 53.781 19.813L58 17V35Z" fill="#F97878"/>
<path d="M56.781 19.812L58 19V17L53.781 19.812C53.233 20.1774 52.7837 20.6724 52.473 21.2532C52.1623 21.8339 51.9998 22.4824 52 23.141V35H55V23.141C54.9998 22.4824 55.1623 21.8339 55.473 21.2532C55.7837 20.6724 56.233 20.1774 56.781 19.812Z" fill="#ED5D5D"/>
<path d="M60 39H50V34.4C50.0011 34.2447 50.0383 34.0918 50.1087 33.9534C50.1791 33.815 50.2808 33.695 50.4057 33.6027C50.5306 33.5104 50.6752 33.4485 50.8282 33.4218C50.9812 33.3951 51.1383 33.4044 51.287 33.449C53.7078 34.184 56.2922 34.184 58.713 33.449C58.8617 33.4044 59.0188 33.3951 59.1718 33.4218C59.3248 33.4485 59.4694 33.5104 59.5943 33.6027C59.7192 33.695 59.8209 33.815 59.8913 33.9534C59.9617 34.0918 59.9989 34.2447 60 34.4V39Z" fill="#F2A7B1"/>
<path d="M53.163 33.864C52.5287 33.7701 51.9018 33.6314 51.287 33.449C51.1383 33.4044 50.9812 33.3951 50.8282 33.4218C50.6752 33.4485 50.5306 33.5104 50.4057 33.6027C50.2808 33.695 50.1791 33.815 50.1087 33.9534C50.0383 34.0918 50.0011 34.2447 50 34.4V39H53V34.4C53.0012 34.2093 53.0578 34.0231 53.163 33.864V33.864Z" fill="#E8859B"/>
<path d="M59.485 62.441C56.5414 63.186 53.4586 63.186 50.515 62.441C50.0817 62.3316 49.6973 62.0806 49.4228 61.7279C49.1484 61.3752 48.9996 60.9409 49 60.494V37C52.8889 38.3333 57.1111 38.3333 61 37V60.494C61.0005 60.9409 60.8516 61.3752 60.5772 61.7279C60.3027 62.0806 59.9183 62.3316 59.485 62.441V62.441Z" fill="#F97878"/>
<path d="M53.515 59.441C53.0817 59.3316 52.6973 59.0806 52.4228 58.7279C52.1484 58.3752 51.9996 57.9409 52 57.494V37.75C50.982 37.5785 49.9789 37.3277 49 37V60.494C48.9996 60.9409 49.1484 61.3752 49.4228 61.7279C49.6973 62.0806 50.0817 62.3316 50.515 62.441C53.4586 63.186 56.5414 63.186 59.485 62.441C59.9183 62.3316 60.3027 62.0806 60.5772 61.7279C60.8516 61.3752 61.0005 60.9409 61 60.494V59.742C58.5111 60.1609 55.9623 60.0584 53.515 59.441Z" fill="#ED5D5D"/>
<path d="M37.674 13.415C37.437 13.585 37.214 13.769 36.997 13.96C36.7797 13.7625 36.5524 13.5762 36.316 13.402C35.9134 13.1123 35.4225 12.9719 34.9277 13.0047C34.4328 13.0375 33.9648 13.2417 33.604 13.582C33.253 13.9135 33.0394 14.3647 33.0055 14.8463C32.9716 15.3279 33.1199 15.8046 33.421 16.182C34.3919 17.371 35.6115 18.3329 36.994 19C38.3702 18.3187 39.591 17.3607 40.58 16.186C40.8825 15.8088 41.0312 15.3313 40.9963 14.8491C40.9614 14.3669 40.7456 13.9157 40.392 13.586C40.0289 13.2471 39.5594 13.0447 39.0636 13.0135C38.5679 12.9823 38.0767 13.1242 37.674 13.415V13.415Z" fill="#F97878"/>
<path d="M37.674 1.415C37.437 1.585 37.214 1.769 36.997 1.96C36.7797 1.76248 36.5524 1.57623 36.316 1.402C35.9134 1.11233 35.4225 0.971856 34.9277 1.0047C34.4328 1.03755 33.9648 1.24166 33.604 1.582C33.253 1.91349 33.0394 2.36474 33.0055 2.84632C32.9716 3.32789 33.1199 3.80462 33.421 4.182C34.3919 5.37099 35.6115 6.33287 36.994 7C38.3702 6.31871 39.591 5.36073 40.58 4.186C40.8825 3.80885 41.0312 3.3313 40.9963 2.8491C40.9614 2.3669 40.7456 1.91571 40.392 1.586C40.0289 1.24706 39.5594 1.04471 39.0636 1.01353C38.5679 0.982337 38.0767 1.12424 37.674 1.415V1.415Z" fill="#F97878"/>
<path d="M27.674 7.415C27.437 7.585 27.214 7.769 26.997 7.96C26.7797 7.76248 26.5524 7.57623 26.316 7.402C25.9134 7.11233 25.4225 6.97185 24.9277 7.0047C24.4328 7.03755 23.9648 7.24166 23.604 7.582C23.253 7.91348 23.0394 8.36474 23.0055 8.84632C22.9716 9.32789 23.1199 9.80462 23.421 10.182C24.3919 11.371 25.6115 12.3329 26.994 13C28.3702 12.3187 29.591 11.3607 30.58 10.186C30.8825 9.80885 31.0312 9.3313 30.9963 8.8491C30.9614 8.3669 30.7456 7.91571 30.392 7.586C30.0289 7.24706 29.5594 7.04471 29.0636 7.01353C28.5679 6.98234 28.0767 7.12424 27.674 7.415Z" fill="#F97878"/>
<path d="M25.43 10.184C25.1272 9.80519 24.978 9.32632 25.0121 8.84257C25.0462 8.35881 25.2611 7.9056 25.614 7.573C25.7541 7.44209 25.912 7.33166 26.083 7.245C25.6879 7.0337 25.2364 6.9517 24.7922 7.01055C24.348 7.06939 23.9335 7.26611 23.607 7.573C23.2539 7.90547 23.0389 8.35872 23.0048 8.84254C22.9707 9.32637 23.12 9.80529 23.423 10.184C24.3972 11.3772 25.6213 12.3423 27.009 13.011C27.354 12.829 27.683 12.637 28 12.438C27.0186 11.8421 26.1488 11.0793 25.43 10.184V10.184Z" fill="#ED5D5D"/>
<path d="M35.43 16.184C35.1272 15.8052 34.978 15.3263 35.0121 14.8426C35.0462 14.3588 35.2611 13.9056 35.614 13.573C35.7541 13.4421 35.912 13.3317 36.083 13.245C35.6879 13.0337 35.2364 12.9517 34.7922 13.0105C34.348 13.0694 33.9335 13.2661 33.607 13.573C33.2539 13.9055 33.0389 14.3587 33.0048 14.8425C32.9707 15.3264 33.12 15.8053 33.423 16.184C34.3972 17.3772 35.6213 18.3423 37.009 19.011C37.354 18.829 37.683 18.637 38 18.438C37.0186 17.8421 36.1488 17.0793 35.43 16.184Z" fill="#ED5D5D"/>
<path d="M35.43 4.184C35.1272 3.80519 34.978 3.32632 35.0121 2.84257C35.0462 2.35881 35.2611 1.9056 35.614 1.573C35.7541 1.44209 35.912 1.33166 36.083 1.245C35.6879 1.0337 35.2364 0.951701 34.7922 1.01054C34.348 1.06939 33.9335 1.26611 33.607 1.573C33.2539 1.90547 33.0389 2.35872 33.0048 2.84254C32.9707 3.32636 33.12 3.80529 33.423 4.184C34.3972 5.37724 35.6213 6.34225 37.009 7.011C37.354 6.829 37.683 6.637 38 6.438C37.0186 5.8421 36.1488 5.07929 35.43 4.184V4.184Z" fill="#ED5D5D"/>
</svg>
