<svg width="64" height="64" viewBox="0 0 64 64" fill="none" xmlns="http://www.w3.org/2000/svg">
<path d="M13.78 40.35C13.079 41.569 12.15 41.034 11.447 42.254C10.745 43.473 11.675 44.008 10.971 45.229C10.269 46.452 9.338 45.917 8.637 47.135" stroke="#1B1D1E" stroke-width="2.7" stroke-miterlimit="10" stroke-linecap="round" stroke-linejoin="round"/>
<path d="M31.801 10.182C32.291 10.182 32.688 10.579 32.688 11.07C32.688 11.561 32.292 11.959 31.801 11.959C31.309 11.959 30.912 11.562 30.912 11.07" stroke="#1B1D1E" stroke-width="2.7" stroke-miterlimit="10" stroke-linecap="round" stroke-linejoin="round"/>
<path d="M54.617 42.617L51.252 40.508" stroke="#1B1D1E" stroke-width="2.7" stroke-miterlimit="10" stroke-linecap="round" stroke-linejoin="round"/>
<path d="M39.26 54.484L41.369 51.119" stroke="#1B1D1E" stroke-width="2.7" stroke-miterlimit="10" stroke-linecap="round" stroke-linejoin="round"/>
<path d="M24.614 20.192C25.43 21.137 25.966 22.169 26.172 23.072C26.379 23.975 26.255 24.75 25.754 25.182C24.751 26.048 22.615 25.218 20.983 23.328C20.186 22.405 19.657 21.401 19.44 20.515C19.213 19.583 19.331 18.782 19.844 18.34C20.846 17.472 22.983 18.303 24.614 20.192Z" stroke="#1B1D1E" stroke-width="2.7" stroke-miterlimit="10" stroke-linecap="round" stroke-linejoin="round"/>
<path d="M26.195 23.197L27.522 30.363" stroke="#1B1D1E" stroke-width="2.7" stroke-miterlimit="10" stroke-linecap="round" stroke-linejoin="round"/>
<path d="M19.432 20.507L20.696 27.329" stroke="#1B1D1E" stroke-width="2.7" stroke-miterlimit="10" stroke-linecap="round" stroke-linejoin="round"/>
<path d="M21.7 38.105L20.505 31.663L28.486 30.183L29.682 36.627" stroke="#1B1D1E" stroke-width="2.7" stroke-miterlimit="10" stroke-linecap="round" stroke-linejoin="round"/>
<path d="M31.268 39.617L33.369 50.953L23.39 52.803L21.29 41.465" stroke="#1B1D1E" stroke-width="2.7" stroke-miterlimit="10" stroke-linecap="round" stroke-linejoin="round"/>
<path d="M27.435 40.324L20.756 41.563L20.168 38.387L31.211 36.342L31.801 39.518L31.268 39.615" stroke="#1B1D1E" stroke-width="2.7" stroke-miterlimit="10" stroke-linecap="round" stroke-linejoin="round"/>
<path d="M47.096 24.653C48.942 25.411 49.561 27.414 48.479 29.126L45.618 33.649C44.536 35.36 42.161 36.135 40.315 35.378" stroke="#1B1D1E" stroke-width="2.7" stroke-miterlimit="10" stroke-linecap="round" stroke-linejoin="round"/>
<path d="M36.063 32.649C36.532 33.453 37.235 34.113 38.086 34.463" stroke="#1B1D1E" stroke-width="2.7" stroke-miterlimit="10" stroke-linecap="round" stroke-linejoin="round"/>
<path d="M40.789 22.066C39.176 21.404 37.56 22.078 36.893 23.58" stroke="#1B1D1E" stroke-width="2.7" stroke-miterlimit="10" stroke-linecap="round" stroke-linejoin="round"/>
<path d="M38.086 34.463L40.314 35.377" stroke="#1B1D1E" stroke-width="2.7" stroke-miterlimit="10" stroke-linecap="round" stroke-linejoin="round"/>
<path d="M40.789 22.066L47.096 24.653" stroke="#1B1D1E" stroke-width="2.7" stroke-miterlimit="10" stroke-linecap="round" stroke-linejoin="round"/>
<path d="M33.207 32.56L36.891 23.581" stroke="#1B1D1E" stroke-width="2.7" stroke-miterlimit="10" stroke-linecap="round" stroke-linejoin="round"/>
<path d="M48.809 28.469L43.936 40.35L36.053 37.115" stroke="#1B1D1E" stroke-width="2.7" stroke-miterlimit="10" stroke-linecap="round" stroke-linejoin="round"/>
<path d="M51.252 13.306L45.799 11.07L40.789 22.066L47.096 24.653L51.252 13.306Z" stroke="#1B1D1E" stroke-width="2.7" stroke-miterlimit="10" stroke-linecap="round" stroke-linejoin="round"/>
</svg>
