<svg width="48" height="48" viewBox="0 0 48 48" fill="none" xmlns="http://www.w3.org/2000/svg">
<path d="M7.81395 22.6601C7.04295 21.8891 6.60395 20.9171 6.48495 19.9141L6.47395 19.9031L6.45595 19.9181C6.33595 20.9201 5.89595 21.8871 5.12795 22.6551C4.35995 23.4231 3.39395 23.8631 2.39295 23.9831L2.37695 24.0001L2.38895 24.0121C3.39095 24.1321 4.36395 24.5721 5.13395 25.3421C5.90295 26.1121 6.34395 27.0831 6.46195 28.0861L6.47495 28.0981L6.48595 28.0861C6.60495 27.0831 7.04395 26.1111 7.81495 25.3421C8.58395 24.5721 9.55595 24.1321 10.561 24.0121L10.571 24.0001L10.56 23.9881C9.55595 23.8701 8.58295 23.4291 7.81395 22.6601Z" fill="#241F20"/>
<path d="M3.03701 18.5742L3.04501 18.5652C3.13201 17.8242 3.45801 17.1072 4.02601 16.5382C4.59501 15.9702 5.31201 15.6442 6.05401 15.5562L6.06101 15.5482L6.05401 15.5402C5.31101 15.4522 4.59501 15.1262 4.02601 14.5592C3.45701 13.9912 3.13201 13.2712 3.04501 12.5312L3.03701 12.5222L3.02301 12.5342C2.93501 13.2742 2.60901 13.9892 2.04301 14.5552C1.47701 15.1222 0.76001 15.4472 0.0220098 15.5362L0.0100098 15.5472L0.0190098 15.5552C0.75901 15.6432 1.47701 15.9702 2.04601 16.5372C2.61301 17.1062 2.93901 17.8242 3.02601 18.5642L3.03701 18.5742Z" fill="#241F20"/>
<path d="M47.977 32.6812C46.792 32.5422 45.643 32.0212 44.734 31.1112C43.827 30.2022 43.304 29.0542 43.165 27.8702L43.151 27.8562L43.13 27.8742C42.991 29.0572 42.469 30.2002 41.563 31.1062C40.657 32.0132 39.513 32.5352 38.332 32.6752L38.312 32.6962L38.326 32.7102C39.511 32.8492 40.659 33.3712 41.569 34.2802C42.478 35.1882 42.999 36.3372 43.136 37.5222L43.152 37.5362L43.166 37.5222C43.306 36.3362 43.828 35.1882 44.735 34.2802C45.644 33.3712 46.794 32.8482 47.978 32.7102L47.992 32.6962L47.977 32.6812Z" fill="#241F20"/>
<path d="M39.158 16.5681C39.158 8.64612 32.737 2.22412 24.813 2.22412C16.891 2.22412 10.468 8.64612 10.468 16.5681C10.468 23.9241 16.007 29.9781 23.14 30.8071V36.6081H21.947V45.7771H23.14H26.485H27.677V36.6081H26.485V30.8071C33.619 29.9781 39.158 23.9241 39.158 16.5681ZM17.96 23.6781L31.88 9.75812C32.404 10.2291 33.142 10.9781 33.736 11.8871L20.082 25.5451C19.216 24.9791 18.385 24.1391 17.96 23.6781ZM26.257 27.0041C25.964 27.0381 25.667 27.0481 25.37 27.0591C24.729 27.0321 23.823 26.9281 22.616 26.6611L34.888 14.3881C35.113 15.1571 35.4 16.4951 35.268 17.9921L26.257 27.0041Z" fill="#241F20"/>
</svg>
