<svg width="28" height="24" viewBox="0 0 28 24" fill="none" xmlns="http://www.w3.org/2000/svg">
<path d="M6 7.99992C5.4473 7.99992 5 7.55212 5 6.99992V2.86862L4 3.53512V6.99992C4 7.55212 3.5527 7.99992 3 7.99992C2.4473 7.99992 2 7.55212 2 6.99992V2.99992C2 2.66542 2.167 2.35342 2.4453 2.16792L5.4453 0.167919C5.751 -0.0356808 6.1475 -0.0557811 6.4717 0.118119C6.7969 0.292419 7 0.631219 7 0.999919V6.99992C7 7.55212 6.5527 7.99992 6 7.99992Z" fill="black"/>
<path d="M7 12H2C1.4473 12 1 11.5522 1 11V8C1 7.4478 1.4473 7 2 7H7C7.5527 7 8 7.4478 8 8V11C8 11.5522 7.5527 12 7 12ZM3 10H6V9H3V10Z" fill="black"/>
<path d="M23 24C20.1494 24 18 22.7104 18 21C18 19.2896 20.1494 18 23 18C25.8506 18 28 19.2896 28 21C28 22.7104 25.8506 24 23 24ZM23 20C21.0645 20 20 20.751 20 21C20 21.249 21.0645 22 23 22C24.9355 22 26 21.249 26 21C26 20.751 24.9355 20 23 20Z" fill="black"/>
<path d="M23 20C22.4473 20 22 19.5522 22 19V18C22 17.4478 22.4473 17 23 17C23.5527 17 24 17.4478 24 18V19C24 19.5522 23.5527 20 23 20Z" fill="black"/>
<path d="M23 18C20.2432 18 18 15.9814 18 13.5C18 11.0186 20.2432 9 23 9C25.7568 9 28 11.0186 28 13.5C28 15.9814 25.7568 18 23 18ZM23 11C21.3457 11 20 12.1216 20 13.5C20 14.8784 21.3457 16 23 16C24.6543 16 26 14.8784 26 13.5C26 12.1216 24.6543 11 23 11Z" fill="black"/>
<path d="M14 24C12.6211 24 11.5 22.8784 11.5 21.5V10C11.5 9.4478 11.9473 9 12.5 9H15.5C16.0527 9 16.5 9.4478 16.5 10V21.5C16.5 22.8784 15.3789 24 14 24ZM13.5 11V21.5C13.5 21.7759 13.7246 22 14 22C14.2754 22 14.5 21.7759 14.5 21.5V11H13.5Z" fill="black"/>
<path d="M15.5 9H12.5C11.9473 9 11.5 8.5522 11.5 8C11.5 7.4478 11.9473 7 12.5 7H15.5C16.0527 7 16.5 7.4478 16.5 8C16.5 8.5522 16.0527 9 15.5 9Z" fill="black"/>
<path d="M15.5 7H12.5C12.166 7 11.8535 6.833 11.668 6.5547L9.66797 3.5547C9.40337 3.1582 9.45607 2.6299 9.79297 2.293L10.7325 1.3535C11.5918 0.4932 12.7832 0 14 0C15.2168 0 16.4082 0.4932 17.2676 1.3535L18.207 2.293C18.5439 2.6299 18.5966 3.1582 18.332 3.5547L16.332 6.5547C16.1465 6.833 15.834 7 15.5 7ZM13.0352 5H14.9649L16.2129 3.1274L15.8535 2.7675C14.8789 1.7919 13.1211 1.7919 12.1465 2.7675L11.7871 3.1274L13.0352 5Z" fill="black"/>
<path d="M8 24H1C0.4473 24 0 23.5522 0 23V11C0 10.4478 0.4473 10 1 10H8C8.5527 10 9 10.4478 9 11V23C9 23.5522 8.5527 24 8 24ZM2 22H7V12H2V22Z" fill="black"/>
</svg>
