<svg width="110" height="49" viewBox="0 0 110 49" fill="none" xmlns="http://www.w3.org/2000/svg">
<mask id="mask0_0_1" style="mask-type:alpha" maskUnits="userSpaceOnUse" x="-19" y="0" width="134" height="64">
<rect x="-19" width="134" height="64" fill="#C4C4C4"/>
</mask>
<g mask="url(#mask0_0_1)">
<path d="M1.6001 42H0.600098V48.8H1.4001V46H1.9001C3.2001 46 4.3001 45.5 4.3001 44C4.3001 42.7 3.7001 42 1.6001 42ZM1.7001 45.1H1.4001V42.7H1.6001C2.4001 42.7 3.4001 42.8 3.4001 43.9C3.5001 45 2.6001 45.1 1.7001 45.1Z" fill="black"/>
<path d="M9.7 43.9C9.7 43.3 9.4 42.6 8.8 42.3C8.3 42 7.7 42 7.1 42H6V48.8H6.8V45.9H7.1L9.1 48.8H10.1L8 45.9C9.1 45.7 9.7 44.9 9.7 43.9ZM7.1 45.2H6.9V42.8H7.1C7.9 42.8 8.9 43 8.9 44C8.9 45 8 45.2 7.1 45.2Z" fill="black"/>
<path d="M15 41.8C13.1 41.8 11.5 43.4 11.5 45.3C11.5 47.3 13.1 48.8 15 48.8C17 48.8 18.5 47.3 18.5 45.3C18.5 43.4 16.9 41.8 15 41.8ZM15 48.1C13.5 48.1 12.3 46.9 12.3 45.4C12.3 43.9 13.4 42.7 15 42.7C16.6 42.7 17.7 43.9 17.7 45.4C17.7 46.9 16.4 48.1 15 48.1Z" fill="black"/>
<path d="M20.3 48.7H21.1V45.4H23.5V44.6H21.1V42.7H23.6V42H20.3V48.7Z" fill="black"/>
<path d="M25.5 48.7H29.2V48H26.4V45.4H29.1V44.6H26.4V42.7H29.2V42H25.5V48.7Z" fill="black"/>
<path d="M33.4001 44.7L32.9001 44.5C32.5001 44.3 32 44.1 32 43.5C32 42.9 32.6 42.5 33.1 42.5C33.6 42.5 33.9001 42.7 34.2001 43.1L34.9001 42.7C34.5001 42 33.9001 41.7 33.2001 41.7C32.2001 41.7 31.2001 42.4 31.2001 43.4C31.2001 44.3 31.9001 44.8 32.7001 45.1L33.2001 45.3C33.8001 45.5 34.4001 45.9 34.4001 46.6C34.4001 47.3 33.9001 47.9 33.2001 47.9C32.5001 47.9 31.9 47.4 31.9 46.6L30.8 47C30.9 48.1 31.8001 48.9 32.9001 48.9C34.1001 48.9 35.1 48 35.1 46.8C35.1 45.6 34.4001 45.1 33.4001 44.7Z" fill="black"/>
<path d="M39.2001 44.7L38.7001 44.5C38.3001 44.3 37.8001 44.1 37.8001 43.5C37.8001 42.9 38.4001 42.5 38.9001 42.5C39.4001 42.5 39.7001 42.7 40.0001 43.1L40.7001 42.7C40.3001 42 39.7001 41.7 39.0001 41.7C38.0001 41.7 37.0001 42.4 37.0001 43.4C37.0001 44.3 37.7001 44.8 38.5001 45.1L39.0001 45.3C39.6001 45.5 40.2001 45.9 40.2001 46.6C40.2001 47.3 39.7001 47.9 39.0001 47.9C38.3001 47.9 37.7001 47.4 37.7001 46.6L36.6001 47C36.7001 48.1 37.6001 48.9 38.7001 48.9C39.9001 48.9 40.9001 48 40.9001 46.8C40.9001 45.6 40.2001 45.1 39.2001 44.7Z" fill="black"/>
<path d="M43.6 42H42.8V48.8H43.6V42Z" fill="black"/>
<path d="M48.9001 41.8C47.0001 41.8 45.4001 43.4 45.4001 45.3C45.4001 47.3 47.0001 48.8 48.9001 48.8C50.9001 48.8 52.4001 47.3 52.4001 45.3C52.5001 43.4 50.9001 41.8 48.9001 41.8ZM48.9001 48.1C47.4001 48.1 46.2001 46.9 46.2001 45.4C46.2001 43.9 47.3001 42.7 48.9001 42.7C50.5001 42.7 51.6001 43.9 51.6001 45.4C51.6001 46.9 50.4001 48.1 48.9001 48.1Z" fill="black"/>
<path d="M54.2002 48.7001H55.1002V43.7001L60.1002 49.0001V42.0001H59.3002V47.0001L54.2002 41.6001V48.7001Z" fill="black"/>
<path d="M76 44.8999V45.0999V45.4999V45.6999H80.9V44.8999H76Z" fill="black"/>
<path d="M61.6001 48.7H62.5001L63.3001 47H66.4001L67.2001 48.7H68.1001L64.9001 41.7L61.6001 48.7ZM63.6001 46.3L64.8001 43.6L66.0001 46.3H63.6001Z" fill="black"/>
<path d="M70.5001 42H69.6001V48.7H72.5001V48H70.5001V42Z" fill="black"/>
<path d="M92 49H92.9L93.7 47.3H96.8L97.6 49H98.5L95.3 42L92 49ZM94 46.6L95.2 43.9L96.4 46.6H94Z" fill="black"/>
<path d="M84.8 42H84V48.8H84.8V42Z" fill="black"/>
<path d="M89.4 45L88.9 44.8C88.5 44.6 88 44.4 88 43.8C88 43.2 88.6 42.8 89.1 42.8C89.6 42.8 89.9 43 90.2 43.4L90.9 43C90.5 42.3 89.9 42 89.2 42C88.2 42 87.2 42.7 87.2 43.7C87.2 44.6 87.9 45.1 88.7 45.4L89.2 45.6C89.8 45.8 90.4 46.2 90.4 46.9C90.4 47.6 89.9 48.2 89.2 48.2C88.5 48.2 87.9 47.7 87.9 46.9L87 47.1C87.1 48.2 88 49 89.1 49C90.3 49 91.3 48.1 91.3 46.9C91.1 45.9 90.4 45.4 89.4 45Z" fill="black"/>
<path d="M61.2001 24.1001C58.4001 25.1001 53.9001 24.4001 49.5001 24.3001C45.1001 24.4001 40.6001 25.1001 37.8001 24.1001C30.8001 21.6001 34.5001 19.8001 34.5001 19.8001C37.5001 17.2001 41.3001 15.0001 42.8001 14.0001C45.0001 12.6001 46.5001 14.4001 49.6001 14.5001C52.7001 14.5001 54.2001 12.6001 56.4001 14.0001C57.8001 15.0001 61.6001 17.2001 64.7001 19.8001C64.6001 19.8001 68.3001 21.6001 61.2001 24.1001ZM72.1001 20.4001C70.1001 17.6001 64.5001 9.10008 57.2001 5.50008C54.0001 3.90008 52.3001 7.20008 49.5001 7.30008C46.7001 7.20008 45.1001 3.90008 41.8001 5.50008C34.6001 9.10008 29.0001 17.6001 27.0001 20.4001C25.8001 22.0001 27.3001 26.1001 33.0001 30.6001C35.3001 32.4001 37.8001 33.6001 40.9001 34.3001C43.3001 34.8001 47.1001 34.2001 49.6001 34.2001C52.1001 34.1001 55.9001 34.8001 58.3001 34.3001C61.5001 33.6001 63.9001 32.4001 66.2001 30.6001C71.8001 26.1001 73.3001 22.0001 72.1001 20.4001Z" fill="#EB1C50"/>
<path d="M64.6002 19.8002C61.6002 17.2002 57.8002 15.0002 56.3002 14.0002C54.1002 12.6002 52.6002 14.4002 49.5002 14.5002C46.4002 14.5002 44.9002 12.6002 42.7002 14.0002C41.3002 15.0002 37.5002 17.2002 34.4002 19.8002C34.4002 19.8002 30.7002 21.6002 37.7002 24.1002C40.5002 25.1002 45.0002 24.4002 49.4002 24.3002C53.8002 24.4002 58.3002 25.1002 61.1002 24.1002C68.3002 21.6002 64.6002 19.8002 64.6002 19.8002Z" fill="white"/>
<path d="M43.3003 7.80015C44.0003 7.70015 44.7003 9.00016 44.4003 9.20016C44.1003 9.40016 41.9003 10.0002 40.9003 10.6002C40.0003 11.3002 38.3003 12.0002 39.0003 10.7002C39.7003 9.50016 41.2003 8.00015 43.3003 7.80015Z" fill="white"/>
<path d="M50.5002 27.2C51.6002 27.3 53.0002 27.9 51.5002 28.5C50.0002 29.2 49.0002 29.3 46.8002 29.1C44.6002 28.9 42.8002 28.7 41.0002 28.6C39.2002 28.5 37.4002 26.9 39.1002 27.1C44.7002 27.8 48.5002 27 50.5002 27.2Z" fill="white"/>
<path d="M93.5001 19.3C92.6001 19.4 90.6001 19.7 90.6001 19.7V22.1C90.6001 22.1 92.7001 22.5 93.5001 22.5C94.2001 22.5 95.5001 21.6 95.8001 20.9C95.5001 20.2 94.2001 19.3 93.5001 19.3Z" fill="black"/>
<path d="M93.6003 18.9001C93.5003 18.9001 93.5003 19.0001 93.6003 18.9001C92.7003 19.0001 90.7003 19.3001 90.6003 19.3001L90.3003 19.4001V19.7001V22.1001V22.4001L90.6003 22.5001C90.7003 22.5001 92.7003 22.9001 93.6003 22.9001C93.6003 22.9001 93.6003 22.9001 93.7003 22.9001C94.6003 22.9001 96.0003 21.9001 96.3003 21.0001V20.9001V21.0001V20.9001V20.8001C95.7003 19.9001 94.4003 18.9001 93.6003 18.9001ZM93.6003 19.3001C94.3003 19.3001 95.5003 20.2001 95.9003 20.9001C95.6003 21.6001 94.4003 22.5001 93.7003 22.5001C92.8003 22.5001 90.8003 22.1001 90.8003 22.1001V19.7001C90.6003 19.8001 92.7003 19.4001 93.6003 19.3001C93.6003 19.3001 93.5003 19.3001 93.6003 19.3001Z" fill="white"/>
<path d="M4.60029 20.4C4.60029 20.4 34.2003 19.9 36.4003 20C39.8003 20.1 51.3003 20.6 62.0003 20C63.1003 19.9 69.7003 19.8 74.2003 19.8C80.8003 19.8 89.4003 20 89.4003 20V22C86.8003 22.2 79.2003 22.2 74.2003 22.1C69.1003 22.1 64.7003 22.1 61.9003 22C48.9003 21.4 41.9003 22.1 36.4003 22.1C36.4003 22.1 5.30029 21.7 2.80029 21.4L4.60029 20.4Z" fill="black"/>
<path d="M74.0002 19.4001C69.4002 19.4001 62.9002 19.5001 61.9002 19.6001C58.6002 19.8001 54.8002 19.9001 50.7002 19.9001C45.7002 19.9001 41.4002 19.8001 38.6002 19.7001C37.7002 19.7001 37.0002 19.6001 36.4002 19.6001C36.3002 19.6001 36.1002 19.6001 35.9002 19.6001C31.4002 19.6001 4.9002 20.0001 4.6002 20.0001H4.5002L4.4002 20.1001L2.6002 21.2001L1.7002 21.8001L2.8002 21.9001C5.2002 22.2001 35.1002 22.5001 36.4002 22.6001C38.1002 22.6001 39.8002 22.5001 41.9002 22.5001C44.7002 22.4001 47.8002 22.3001 51.8002 22.3001C55.1002 22.3001 58.4002 22.4001 61.9002 22.5001C63.8002 22.6001 66.4002 22.6001 69.5002 22.6001C71.0002 22.6001 72.6002 22.6001 74.3002 22.6001C75.8002 22.6001 77.5002 22.6001 79.1002 22.6001C82.1002 22.6001 87.4002 22.6001 89.5002 22.5001H89.9002V22.0001V20.0001V19.6001H89.5002C89.4002 19.6001 80.8002 19.4001 74.3002 19.4001H74.0002V19.4001ZM74.0002 19.8001H74.1002C80.7002 19.8001 89.3002 20.0001 89.3002 20.0001V22.0001C87.4002 22.1001 83.1002 22.1001 78.9002 22.1001C77.2002 22.1001 75.6002 22.1001 74.1002 22.1001C69.0002 22.1001 64.6002 22.1001 61.8002 22.0001C57.9002 21.8001 54.6002 21.8001 51.7002 21.8001C44.8002 21.8001 40.2002 22.1001 36.3002 22.1001C36.3002 22.1001 5.2002 21.7001 2.7002 21.4001L4.5002 20.3001C4.5002 20.3001 31.2002 19.9001 35.8002 19.9001C36.0002 19.9001 36.2002 19.9001 36.3002 19.9001C38.5002 19.9001 44.1002 20.2001 50.6002 20.2001C54.2002 20.2001 58.1002 20.1001 61.8002 19.9001C63.0002 19.9001 69.5002 19.8001 74.0002 19.8001Z" fill="white"/>
</g>
</svg>
